<svg width="33" height="33" viewBox="0 0 33 33" fill="none" xmlns="http://www.w3.org/2000/svg">
<path d="M28.5 24.4998H8.5C8.14638 24.4998 7.80724 24.6403 7.55719 24.8904C7.30714 25.1404 7.16667 25.4795 7.16667 25.8332C7.16667 26.1868 7.30714 26.5259 7.55719 26.776C7.80724 27.026 8.14638 27.1665 8.5 27.1665H28.5V29.8332H8.5C7.43913 29.8332 6.42172 29.4117 5.67157 28.6616C4.92143 27.9115 4.5 26.894 4.5 25.8332V5.83317C4.5 5.12593 4.78095 4.44765 5.28105 3.94755C5.78115 3.44746 6.45942 3.1665 7.16667 3.1665H28.5V24.4998ZM7.16667 21.8998C7.38267 21.8558 7.60533 21.8332 7.83333 21.8332H25.8333V5.83317H7.16667V21.8998ZM21.8333 12.4998H11.1667V9.83317H21.8333V12.4998Z" fill="#12B76A"/>
</svg>