<svg width="25" height="24" viewBox="0 0 25 24" fill="none" xmlns="http://www.w3.org/2000/svg">
<path d="M2.1355 2.00024H22.1355V22.0002H2.1355V2.00024Z" fill="url(#paint0_linear_772_114883)"/>
<path d="M8.15417 17.1676L8.15629 17.1682L7.38357 18.4941C7.10152 18.9781 6.47679 19.1439 5.98824 18.8645C5.49972 18.5851 5.33232 17.9662 5.61437 17.4822L6.18362 16.5055L6.23824 16.4117C6.3358 16.2728 6.57657 16.0331 7.05815 16.0781C7.05815 16.0781 8.19143 16.2 8.27343 16.7835C8.27345 16.7835 8.28464 16.9755 8.15417 17.1676ZM19.1141 13.781H16.7044C16.5403 13.7701 16.4686 13.7121 16.4405 13.6783L16.4387 13.6752L13.8593 9.24919L13.8559 9.25141L13.7012 9.03166C13.4477 8.64759 13.0451 9.62994 13.0451 9.62994C12.5645 10.7246 13.1133 11.9691 13.3047 12.3452L16.8874 18.4927C17.1694 18.9767 17.7942 19.1426 18.2827 18.8631C18.7713 18.5837 18.9387 17.9648 18.6566 17.4808L17.7607 15.9436C17.7434 15.9064 17.7132 15.8052 17.8969 15.8048H19.1141C19.6782 15.8048 20.1355 15.3518 20.1355 14.7929C20.1355 14.234 19.6782 13.781 19.1141 13.781ZM14.4338 15.1567C14.4338 15.1567 14.5624 15.8048 14.0647 15.8048H13.567L5.15694 15.8048C4.59282 15.8048 4.1355 15.3518 4.1355 14.7929C4.1355 14.234 4.59282 13.781 5.15694 13.781H7.44703C7.81676 13.7598 7.90442 13.5483 7.90442 13.5483L7.90643 13.5493L10.8958 8.41995L10.8949 8.41978C10.9494 8.32068 10.904 8.22706 10.8961 8.21224L9.90888 6.51828C9.6268 6.0343 9.7942 5.41541 10.2827 5.13599C10.7713 4.85655 11.396 5.02238 11.6781 5.50637L12.1359 6.29202L12.593 5.50776C12.875 5.02378 13.4997 4.85794 13.9883 5.13738C14.4768 5.41683 14.6442 6.03571 14.3621 6.51968L10.2024 13.6573C10.1842 13.7008 10.1786 13.769 10.314 13.781H12.8004L12.801 13.805C12.801 13.805 14.238 13.8272 14.4338 15.1567Z" fill="white"/>
<defs>
<linearGradient id="paint0_linear_772_114883" x1="12.1355" y1="22.0002" x2="12.1355" y2="2.00024" gradientUnits="userSpaceOnUse">
<stop stop-color="#1D76F2"/>
<stop offset="1" stop-color="#1AC2FB"/>
</linearGradient>
</defs>
</svg>