<svg width="28" height="28" viewBox="0 0 28 28" fill="none" xmlns="http://www.w3.org/2000/svg">
<g clip-path="url(#clip0_16828_33138)">
<path d="M15.0703 11.3752L15.678 10.0384L17.0148 9.43077L15.678 8.82313L15.0703 7.48633L14.4627 8.82313L13.1259 9.43077L14.4627 10.0384L15.0703 11.3752ZM11.4245 11.6183L10.2092 8.94466L8.99392 11.6183L6.32031 12.8335L8.99392 14.0488L10.2092 16.7224L11.4245 14.0488L14.0981 12.8335L11.4245 11.6183ZM15.0703 14.2919L14.4627 15.6287L13.1259 16.2363L14.4627 16.844L15.0703 18.1808L15.678 16.844L17.0148 16.2363L15.678 15.6287L15.0703 14.2919Z" fill="#20B486"/>
</g>
<path d="M12.8359 2.33301C18.6319 2.33301 23.3359 7.03701 23.3359 12.833C23.3359 18.629 18.6319 23.333 12.8359 23.333C7.03994 23.333 2.33594 18.629 2.33594 12.833C2.33594 7.03701 7.03994 2.33301 12.8359 2.33301ZM12.8359 20.9997C17.3474 20.9997 21.0026 17.3445 21.0026 12.833C21.0026 8.32034 17.3474 4.66634 12.8359 4.66634C8.32327 4.66634 4.66927 8.32034 4.66927 12.833C4.66927 17.3445 8.32327 20.9997 12.8359 20.9997ZM22.7351 21.0825L26.0356 24.3818L24.3848 26.0327L21.0854 22.7322L22.7351 21.0825Z" fill="#20B486"/>
<defs>
<clipPath id="clip0_16828_33138">
<rect width="11.6667" height="11.6667" fill="white" transform="translate(5.83594 7)"/>
</clipPath>
</defs>
</svg>
